<svg width="30" height="30" viewBox="0 0 30 30" fill="none" xmlns="http://www.w3.org/2000/svg">
<g clip-path="url(#clip0_18_2)">
<rect x="3" y="3.00024" width="24" height="24" rx="3" fill="white"/>
<path d="M17.2 10.26C17.2 10.5 16.9933 10.8533 16.58 11.32C16.0867 11.88 14.8 13.6 12.72 16.48C12.7467 18.2 12.8 19.38 12.88 20.02C12.92 20.42 12.94 20.7067 12.94 20.88C12.94 21.32 12.86 21.62 12.7 21.78C12.5533 21.9267 12.2933 22 11.92 22C11.64 22 11.3733 21.92 11.12 21.76C10.88 21.5867 10.76 21.38 10.76 21.14C10.76 20.1667 10.74 18.74 10.7 16.86C10.7 16.78 10.6467 16.6467 10.54 16.46C10.4333 16.2733 10.3667 16.1533 10.34 16.1C10.06 15.6067 9.70667 15.06 9.28 14.46C8.86667 13.8467 8.50667 13.3867 8.2 13.08C7.61333 12.4933 7.15333 11.9667 6.82 11.5C6.48667 11.02 6.32 10.68 6.32 10.48C6.32 10.2 6.44667 9.98 6.7 9.82C6.96667 9.64667 7.25333 9.56 7.56 9.56C7.73333 9.56 7.91333 9.60667 8.1 9.7C8.3 9.79333 8.46 9.92667 8.58 10.1C9.36667 11.2733 10.0667 12.2467 10.68 13.02L11.62 14.24C12.1933 13.6533 12.6933 13.0733 13.12 12.5C13.56 11.9133 14.04 11.22 14.56 10.42L14.9 9.9C15.1533 9.55333 15.5467 9.38 16.08 9.38C16.3333 9.38 16.58 9.45333 16.82 9.6C17.0733 9.74667 17.2 9.96667 17.2 10.26ZM19.4667 9.16C19.9334 9.2 20.3401 9.32667 20.6867 9.54C21.0334 9.74 21.2067 10.0467 21.2067 10.46C21.2067 10.7667 21.0601 11.0133 20.7667 11.2C20.4867 11.3733 20.1467 11.46 19.7467 11.46C19.3601 11.46 19.0934 11.36 18.9467 11.16C18.8001 10.96 18.7267 10.7533 18.7267 10.54C18.7267 10.14 18.7667 9.80667 18.8467 9.54C18.9401 9.27333 19.1467 9.14667 19.4667 9.16ZM21.0667 18.02V18.6C21.0667 19.12 21.0801 19.6133 21.1067 20.08C21.1467 20.5333 21.1934 20.9933 21.2467 21.46C21.2334 21.5933 21.1334 21.7333 20.9467 21.88C20.7601 22.0133 20.5934 22.08 20.4467 22.08C20.1934 22.08 19.9334 22.0333 19.6667 21.94C19.4134 21.8333 19.2601 21.7067 19.2067 21.56C19.1267 21.1333 19.0867 20.7533 19.0867 20.42C19.0867 19.3267 19.0534 18.1 18.9867 16.74C18.9334 15.54 18.9067 14.7 18.9067 14.22C18.9067 13.98 19.0267 13.7733 19.2667 13.6C19.5067 13.4267 19.7601 13.34 20.0267 13.34C20.4134 13.34 20.6801 13.4267 20.8267 13.6C20.9867 13.7733 21.0667 14.0467 21.0667 14.42V18.02Z" fill="#86FF7C"/>
</g>
<defs>
<clipPath id="clip0_18_2">
<rect width="30" height="30" fill="white"/>
</clipPath>
</defs>
</svg>
