<svg width="44" height="44" viewBox="0 0 44 44" fill="none" xmlns="http://www.w3.org/2000/svg">
<rect x="2" y="2" width="40" height="40" rx="3" fill="white"/>
<path d="M24.92 14.216C24.92 14.6 24.5893 15.1653 23.928 15.912C23.1387 16.808 21.08 19.56 17.752 24.168C17.7947 26.92 17.88 28.808 18.008 29.832C18.072 30.472 18.104 30.9307 18.104 31.208C18.104 31.912 17.976 32.392 17.72 32.648C17.4853 32.8827 17.0693 33 16.472 33C16.024 33 15.5973 32.872 15.192 32.616C14.808 32.3387 14.616 32.008 14.616 31.624C14.616 30.0667 14.584 27.784 14.52 24.776C14.52 24.648 14.4347 24.4347 14.264 24.136C14.0933 23.8373 13.9867 23.6453 13.944 23.56C13.496 22.7707 12.9307 21.896 12.248 20.936C11.5867 19.9547 11.0107 19.2187 10.52 18.728C9.58133 17.7893 8.84533 16.9467 8.312 16.2C7.77867 15.432 7.512 14.888 7.512 14.568C7.512 14.12 7.71467 13.768 8.12 13.512C8.54667 13.2347 9.00533 13.096 9.496 13.096C9.77333 13.096 10.0613 13.1707 10.36 13.32C10.68 13.4693 10.936 13.6827 11.128 13.96C12.3867 15.8373 13.5067 17.3947 14.488 18.632L15.992 20.584C16.9093 19.6453 17.7093 18.7173 18.392 17.8C19.096 16.8613 19.864 15.752 20.696 14.472L21.24 13.64C21.6453 13.0853 22.2747 12.808 23.128 12.808C23.5333 12.808 23.928 12.9253 24.312 13.16C24.7173 13.3947 24.92 13.7467 24.92 14.216ZM28.5468 12.456C29.2934 12.52 29.9441 12.7227 30.4988 13.064C31.0534 13.384 31.3308 13.8747 31.3308 14.536C31.3308 15.0267 31.0961 15.4213 30.6268 15.72C30.1788 15.9973 29.6348 16.136 28.9948 16.136C28.3761 16.136 27.9494 15.976 27.7148 15.656C27.4801 15.336 27.3628 15.0053 27.3628 14.664C27.3628 14.024 27.4268 13.4907 27.5548 13.064C27.7041 12.6373 28.0348 12.4347 28.5468 12.456ZM31.1068 26.632V27.56C31.1068 28.392 31.1281 29.1813 31.1708 29.928C31.2348 30.6533 31.3094 31.3893 31.3948 32.136C31.3734 32.3493 31.2134 32.5733 30.9148 32.808C30.6161 33.0213 30.3494 33.128 30.1148 33.128C29.7094 33.128 29.2934 33.0533 28.8668 32.904C28.4614 32.7333 28.2161 32.5307 28.1308 32.296C28.0028 31.6133 27.9388 31.0053 27.9388 30.472C27.9388 28.7227 27.8854 26.76 27.7788 24.584C27.6934 22.664 27.6508 21.32 27.6508 20.552C27.6508 20.168 27.8428 19.8373 28.2268 19.56C28.6108 19.2827 29.0161 19.144 29.4427 19.144C30.0614 19.144 30.4881 19.2827 30.7228 19.56C30.9788 19.8373 31.1068 20.2747 31.1068 20.872V26.632Z" fill="#86FF7C"/>
</svg>
